<svg xmlns="http://www.w3.org/2000/svg" width="24.26" height="21.565" viewBox="0 0 24.26 21.565">
  <path id="icon-awesome-shopping-cart" d="M22.244,12.691,24.235,3.93A1.011,1.011,0,0,0,23.249,2.7H6.706L6.32.808A1.011,1.011,0,0,0,5.329,0H1.011A1.011,1.011,0,0,0,0,1.011v.674A1.011,1.011,0,0,0,1.011,2.7H3.954L6.913,17.16a2.359,2.359,0,1,0,2.824.361h8.83a2.358,2.358,0,1,0,2.679-.438l.232-1.022a1.011,1.011,0,0,0-.986-1.235H9.187l-.276-1.348H21.258A1.011,1.011,0,0,0,22.244,12.691Z" fill="#fff"/>
</svg>
