<svg xmlns="http://www.w3.org/2000/svg" width="14.039" height="18.719" viewBox="0 0 14.039 18.719">
  <path id="icon-awesome-file-pdf" d="M6.65,9.363a3.527,3.527,0,0,1-.073-1.715C6.884,7.648,6.855,9,6.65,9.363Zm-.062,1.726A16.87,16.87,0,0,1,5.55,13.381a13.463,13.463,0,0,1,2.3-.8A4.736,4.736,0,0,1,6.588,11.089Zm-3.44,4.563c0,.029.483-.2,1.276-1.47A5.053,5.053,0,0,0,3.148,15.652Zm5.919-9.8h4.972V17.842a.875.875,0,0,1-.877.877H.877A.875.875,0,0,1,0,17.842V.877A.875.875,0,0,1,.877,0H8.19V4.972A.88.88,0,0,0,9.067,5.85Zm-.292,6.281a3.669,3.669,0,0,1-1.561-1.967A5.255,5.255,0,0,0,7.44,7.817a.916.916,0,0,0-1.748-.249,6.079,6.079,0,0,0,.3,2.815A34.331,34.331,0,0,1,4.5,13.52s0,0-.007,0C3.5,14.032,1.8,15.151,2.5,16.01a1.136,1.136,0,0,0,.786.366c.654,0,1.305-.658,2.234-2.259a20.84,20.84,0,0,1,2.888-.848,5.541,5.541,0,0,0,2.34.713.946.946,0,0,0,.72-1.587c-.508-.5-1.985-.355-2.691-.263Zm5.009-8.292L10.2.256A.877.877,0,0,0,9.579,0H9.36V4.68h4.68V4.457A.875.875,0,0,0,13.783,3.839Zm-2.709,9.334c.15-.1-.091-.435-1.565-.329C10.866,13.421,11.074,13.173,11.074,13.173Z" fill="#fff"/>
</svg>
