<svg xmlns="http://www.w3.org/2000/svg" width="17.311" height="12.862" viewBox="0 0 17.311 12.862">
  <path id="icon-phone" d="M2.131,12.862a.508.508,0,0,1-.315-.524c0-.759-.008-1.517,0-2.275a1.751,1.751,0,0,1,.373-1.029q1.3-1.761,2.568-3.54a1.512,1.512,0,0,1,.89-.714V3.87a8.885,8.885,0,0,1,1.461-.025v.932h3.065V3.933a3.281,3.281,0,0,1,1.463-.047c.006.139.015.29.019.441s0,.284,0,.458a1.434,1.434,0,0,1,.882.694q1.3,1.812,2.616,3.611a1.742,1.742,0,0,1,.341,1.039c.008.715,0,1.431,0,2.147a.569.569,0,0,1-.314.586ZM8.253,6.7v.839A2.086,2.086,0,0,0,9.1,7.5c-.047-.271.063-.541-.073-.8Zm2.431.018H9.875v.815h.809ZM6.612,8.982a2.534,2.534,0,0,0,.833.012V8.183H6.612Zm2.423.026a1.722,1.722,0,0,0,.027-.826H8.215c.038.294-.053.561.066.826Zm1.659-.837H9.866v.818h.829ZM6.622,10.45h.819V9.63H6.622Zm2.437-.806H8.244v.811h.815Zm.8.845c.312-.042.58.058.829-.067V9.638H9.858ZM6.622,7.531h.819V6.714H6.622ZM5.549,2.492a7.346,7.346,0,0,1,1.861-.265c.8-.016,1.6-.018,2.4,0a7.685,7.685,0,0,1,1.9.256.918.918,0,0,1,.684.5,42.28,42.28,0,0,0,4.845-.053,1.705,1.705,0,0,0-.709-1.077A6.258,6.258,0,0,0,14.805.936,17.091,17.091,0,0,0,9.559.01C8.718-.024,7.873.037,7.03.065A15.672,15.672,0,0,0,3.9.516a9.18,9.18,0,0,0-2.665,1.02,2.847,2.847,0,0,0-.981.88.763.763,0,0,0-.18.562H4.886a.967.967,0,0,1,.663-.486m6.817,1.817a.524.524,0,0,0,.469.483,1.553,1.553,0,0,0,.256.008H16.6a1.336,1.336,0,0,0,.256-.012A.5.5,0,0,0,17.3,4.33c.021-.35.005-.7.005-1.06H12.361c0,.362-.015.7,0,1.04M.011,4.275A.539.539,0,0,0,.537,4.8a1.611,1.611,0,0,0,.172,0H4.23a1.453,1.453,0,0,0,.257-.01.5.5,0,0,0,.455-.447c.022-.352.006-.707.006-1.079H.006c0,.358-.015.686,0,1.011" transform="translate(0 0)" fill="#0b89c3"/>
</svg>
